<!DOCTYPE svg PUBLIC "-//W3C//DTD SVG 1.1//EN" "http://www.w3.org/Graphics/SVG/1.1/DTD/svg11.dtd">
<svg version="1.1" xmlns="http://www.w3.org/2000/svg" xmlns:xlink="http://www.w3.org/1999/xlink" height="100%" width="100%" viewBox="20 0 639.45 372.75" preserveAspectRatio="xMinYMin meet">
<defs>
	<g id="pinPath" >
	         <path fill="#054365" d="M5.277-12.838C5.277-16.794,2.917-20,0-20c-2.915,0-5.278,3.206-5.278,7.162c0,1.49,0.338,2.872,0.912,4.018h-0.002L0,0
	          l4.367-8.82H4.365C4.938-9.966,5.277-11.348,5.277-12.838z"/>
	         <circle fill="#FFFFFF" cx="0" cy="-12.4" r="3.6"/>
	 </g>
	 <polygon id="arrow" points="0,-4.741 -4,4.741 0,3.042 4,4.741 "/>
	 <g id="icondog">
	 	<circle  stroke="#555" fill="inherit" cx="0" cy="0" r="6"/>
<ellipse fill="#FFFFFF" cx="-1.234" cy="-2.034" rx="0.879" ry="1.48"/>
<ellipse fill="#FFFFFF" cx="1.307" cy="-2.283" rx="0.88" ry="1.481"/>
<ellipse transform="matrix(-0.2782 -0.9605 0.9605 -0.2782 -3.7882 -3.1017)" fill="#FFFFFF" cx="-3.06" cy="-0.127" rx="1.48" ry="0.88"/>
<ellipse transform="matrix(0.259 -0.9659 0.9659 0.259 2.3956 2.8678)" fill="#FFFFFF" cx="3.067" cy="-0.127" rx="1.482" ry="0.88"/>
<path fill="#FFFFFF" d="M2.287,2.161c0-0.003,0.001-0.006,0.001-0.008L1.688,0.654C1.466,0.134,0.989-0.213,0.125-0.213
	c-0.861,0-1.358,0.347-1.56,0.867l-0.745,1.353c0,0.004,0.001,0.007,0.001,0.01c-0.09,0.139-0.147,0.287-0.147,0.442
	c0,0.721,1.048,1.306,2.338,1.306c1.291,0,2.339-0.585,2.339-1.306C2.354,2.356,2.329,2.257,2.287,2.161z"/>
</g>

	<g id="icondogOrig">
		<circle  stroke="#555" fill="inherit" cx="1" cy="0" r="6"/>
	<path fill="#FFFFFF" d="M1.156-1.433C0.84-1.177,0.545-1.002,0.371-0.908h-2.038c-0.096,0-0.186,0.025-0.266,0.066
		c-0.304-0.27-0.466-0.542-0.481-0.808c-0.02-0.374,0.263-0.646,0.271-0.654c0.127-0.116,0.137-0.313,0.021-0.442
		C-2.239-2.875-2.437-2.886-2.566-2.77c-0.021,0.02-0.507,0.467-0.476,1.143C-3.02-1.154-2.755-0.708-2.26-0.296V0.86V0.94v2.418
		c0,0.187,0.152,0.338,0.338,0.338h0.51c0.186,0,0.338-0.152,0.338-0.338V1.534h2.373v1.825c0,0.187,0.152,0.338,0.338,0.338h0.51
		c0.186,0,0.339-0.152,0.339-0.338V0.94V0.86V0.04C1.643-0.479,1.288-1.117,1.156-1.433z"/>
	<path fill="#FFFFFF" d="M4.07-2.333c-0.265-0.438-0.458-0.62-0.748-0.676L3.315-3.155c0,0,0.021-0.473-0.128-0.538
		c-0.15-0.065-0.546,0.667-0.546,0.667c-0.186,0-0.333,0.17-0.333,0.17C2.114-2.425,1.83-2.065,1.533-1.773l0.002,0
		c0.009,0.035,0.221,0.807,1.213,1.418c0.325-0.135,0.94,0.426,1.305,0.413C4.524,0.04,4.854-0.658,4.854-0.658
		C5.152-1.46,4.772-1.173,4.07-2.333z M3.208-1.721c-0.179,0-0.324-0.145-0.324-0.324c0-0.179,0.146-0.324,0.324-0.324
		c0.179,0,0.323,0.145,0.323,0.324C3.531-1.866,3.387-1.721,3.208-1.721z"/>
	</g>

	<g id="iconmailbox">
		<circle stroke="#555" fill="inherit" cx="0" cy="0" r="6"/>
		<path fill="#FFFFFF" d="M-0.21,0.395l-0.492-0.341l-2.291,1.892v0.137c0,0.071,0.082,0.126,0.183,0.126h5.622
			c0.101,0,0.182-0.056,0.182-0.126V2.041L0.592,0.058L0.105,0.395C0.063,0.425,0.007,0.441-0.053,0.441
			C-0.112,0.441-0.168,0.425-0.21,0.395z"/>
		<polygon fill="#FFFFFF" points="0.686,-0.124 2.993,1.782 2.993,-1.725 		"/>
		<path fill="#FFFFFF" d="M3-2.082c0-0.07-0.082-0.126-0.182-0.126h-5.635C-2.918-2.208-3-2.152-3-2.082v0.192l2.292,1.591l0,0
			l0.54,0.376c0.06,0.041,0.171,0.041,0.23,0l0.536-0.372l0,0L3-1.962V-2.082z"/>
		<polygon fill="#FFFFFF" points="-2.993,-1.653 -2.993,1.687 -0.795,-0.128 		"/>
	</g>

	<g id="iconpool">
		<circle  stroke="#333" fill="inherit" cx="0" cy="0" r="6"/>
	<path fill="#FFFFFF" d="M2.108-3.328C2.065-3.46,1.922-3.531,1.792-3.487C1.755-3.475,0.918-3.182,0.918-1.995v0.151h-1.921v-0.151
		c0-0.808,0.505-1.007,0.532-1.017c0.13-0.045,0.2-0.186,0.156-0.316C-0.358-3.46-0.5-3.531-0.631-3.487
		c-0.036,0.012-0.874,0.305-0.874,1.492v2.86c0,0.14,0.113,0.251,0.251,0.251c0.139,0,0.251-0.112,0.251-0.251V0.013h1.921v0.853
		c0,0.14,0.111,0.251,0.25,0.251c0.139,0,0.251-0.112,0.251-0.251v-2.86c0-0.808,0.505-1.007,0.533-1.017
		C2.082-3.057,2.152-3.198,2.108-3.328z M-1.002-0.488v-0.854h1.921v0.854H-1.002z"/>
	<path fill="#FFFFFF" d="M2.662,0.977l0.001-0.014l0-0.012c0.002-0.018-0.005-0.036-0.019-0.048C2.629,0.889,2.61,0.881,2.591,0.881
		H2.246c-0.021,0-0.039,0.008-0.053,0.021C2.179,0.915,2.172,0.934,2.174,0.951l0,0.012l0.001,0.014
		c0,0.393-0.439,0.713-0.979,0.713c-0.54,0-0.979-0.32-0.979-0.713l0.002-0.026C0.222,0.933,0.214,0.915,0.2,0.901
		c-0.013-0.012-0.032-0.02-0.052-0.02h-0.345c-0.02,0-0.039,0.008-0.052,0.02c-0.014,0.014-0.021,0.031-0.02,0.049l0.002,0.026
		c0,0.393-0.439,0.713-0.979,0.713s-0.979-0.32-0.979-0.713l0.001-0.014l0.001-0.012c0.001-0.018-0.006-0.036-0.02-0.048
		c-0.014-0.014-0.033-0.021-0.053-0.021H-2.64c-0.02,0-0.039,0.008-0.052,0.02c-0.014,0.014-0.021,0.031-0.021,0.049l0.002,0.026
		c0,0.292-0.241,0.542-0.585,0.652v0.39c0.339-0.072,0.635-0.234,0.828-0.462c0.265,0.313,0.723,0.503,1.222,0.503
		c0.5,0,0.957-0.19,1.222-0.503C0.24,1.87,0.698,2.061,1.197,2.061c0.499,0,0.957-0.19,1.221-0.503
		C2.62,1.796,2.935,1.964,3.295,2.029V1.644C2.926,1.542,2.662,1.282,2.662,0.977z"/>
	<path fill="#FFFFFF" d="M2.662,2.417l0.001-0.015l0-0.012c0.002-0.018-0.005-0.036-0.019-0.048C2.629,2.328,2.61,2.321,2.591,2.321
		H2.246c-0.021,0-0.039,0.007-0.053,0.021C2.179,2.354,2.172,2.372,2.174,2.39l0,0.012l0.001,0.015c0,0.393-0.439,0.713-0.979,0.713
		c-0.54,0-0.979-0.32-0.979-0.713l0.002-0.027C0.222,2.371,0.214,2.354,0.2,2.34c-0.013-0.012-0.032-0.02-0.052-0.02h-0.345
		c-0.02,0-0.039,0.007-0.052,0.02c-0.014,0.013-0.021,0.031-0.02,0.049l0.002,0.027c0,0.393-0.439,0.713-0.979,0.713
		s-0.979-0.32-0.979-0.713l0.001-0.015l0.001-0.012c0.001-0.018-0.006-0.036-0.02-0.048c-0.014-0.013-0.033-0.021-0.053-0.021H-2.64
		c-0.02,0-0.039,0.007-0.052,0.02c-0.014,0.013-0.021,0.031-0.021,0.049l0.002,0.027c0,0.291-0.241,0.541-0.585,0.651v0.39
		c0.339-0.071,0.635-0.234,0.828-0.462C-2.203,3.309-1.745,3.5-1.246,3.5c0.5,0,0.957-0.191,1.222-0.505
		C0.24,3.309,0.698,3.5,1.197,3.5c0.499,0,0.957-0.191,1.221-0.505c0.202,0.24,0.517,0.406,0.877,0.473V3.082
		C2.926,2.981,2.662,2.721,2.662,2.417z"/>
</g>
	 </defs>
<style>
	#units{fill:#bd6228; stroke:#857341;  stroke-width:.5} 	
	
	#units[datafloor="floor1"] g#floor2,
	#units[datafloor="floor1"] g#floor3,
	#units[datafloor="floor2"] g#floor1,
	#units[datafloor="floor2"] g#floor3,
	#units[datafloor="floor3"] g#floor1,
	#units[datafloor="floor3"] g#floor2{display:none} 
	#units[datafloor="all"] path{display:auto}	      

	#units .off, .off{display:auto;pointer-events:none}


	#units[datafloor="floor1"] .on.avail1,
	#units[datafloor="floor2"] .on.avail2,
	#units[datafloor="floor3"] .on.avail3,
	    #units[datafloor="floor1"] path.selected.avail1,     
	    #units[datafloor="floor2"] path.selected.avail2,
	    #units[datafloor="floor1"] path.avail1:hover,   
	    #units[datafloor="floor2"] path.avail2:hover, 
	    #units[datafloor="floor3"] path.avail3:hover,   
	    #units[datafloor="floor3"] path.selected.avail3,
	    #units[datafloor="all"] path.selected,  
	    #units[datafloor="all"] path:hover  
	    {fill:orange; opacity:1; pointer-events:auto; cursor:pointer}

	    #units[datafloor="floor1"]>path.avail1.off1, #units[datafloor="floor2"]>path.avail2.off2, #units[datafloor="floor3"]>path.avail3.off3
	    {fill:#e8dbb7; stroke:#857341;  stroke-width:.5;pointer-events:none; cursor:auto}

	    g#gSelected path[class*="path"]{stroke-width:2;stroke: #014165; fill: none; stroke-dasharray:3; opacity:.5}   
	    g#gSelected circle{stroke:#333; fill: #014165; stroke-width:1;r:6; transform: translate(-1px, 2px);pointer-events:none; opacity:.5  }
	    g#gSelected path.path_1{stroke-width:3;stroke: orange; fill: none; stroke-dasharray:5; opacity:1}
	    g#gSelected path.on{stroke-width:3;opacity:1; stroke: green} 
	    g#gSelected circle.uc{r:3;fill:yellow}
	    #doors line{stroke-width:1.5;opacity:1; stroke:#d8d8d8} 
	    #doors line.selected{stroke-width:2;opacity:1; stroke: purple} 
	    #sw line{stroke-width:.5;opacity:.5; stroke: #ccc} 
	    line.missing{stroke-width:3;opacity:1; stroke: green} 


	    
	    g#gSelected text{fill:black;stroke:none; font-size:40%;transform: translate(-2px, -10px);pointer-events:none}

	    g#gSelected g.stacked use{transform: translate(-6px, -5px)}
	    g#gSelected g.stacked text {fill:orange; transform: translate(-8px, -15px)}


text{font-family:  "Open Sans", "Helvetica Neue", "Helvetica", "Arial", sans-serif; font-size:25%; fill: #333;  font-weight:bold;pointer-events:none}
.cc_5x{transform: translate(-2px, 2px);fill:blue} 

.cc_3{transform: translate(-2px, 0px);fill:black;text-anchor:end; fill:orange}
.cc_2{transform: translate(0px, 2px);fill:black;text-anchor:middle;}
.cc_6x{transform: translate(-4px, -2px);fill:magenta;}
#units[datafloor="floor1"]~#unitNo>#unfloor3>text,#units[datafloor="floor1"]~#unitNo>#unfloor2>text,
#units[datafloor="floor2"]~#unitNo>#unfloor3>text,#units[datafloor="floor2"]~#unitNo>#unfloor1>text,
#units[datafloor="floor3"]~#unitNo>#unfloor2>text,#units[datafloor="floor3"]~#unitNo>#unfloor1>text,
#units[datafloor="all"]~#unitNo text, #units[datafloor="tour"]~#unitNo text,#units[datafloor="tour"] text
{display:none}

#units[datafloor="tour"] path{visibility:hidden}
#units[datafloor="tour"] path.tour{visibility:visible}
#units[datafloor="tour"] path.tour+text {fill:white;stroke:none; display:inherit}



#units[datafloor="all"] path.stacked {stroke-width:1px;stroke:orange}
#units text{transform: translate(2px, 0px);alignment-baseline:middle; text-anchor:middle; fill:white; stroke:none} 
.bounds>path{fill:none; stroke:#333;stroke-width:.5;}

#bn>circle{r:5; fill:white; stroke:#333;stroke-width:.5; }
#bn text{fill:#333;font-size:40%;font-weight:bold;text-anchor:middle;alignment-baseline:middle  }	 

#amenities>use{fill:#4f748a; }
#amenities>use:hover{fill:#9c601a}
g#p_paths >circle{fill:maroon; stroke:none; r:1;transform: translate(11px, 5px);}
#uBldgs>path{fill:blue}
#unitNo text,#newUn text{alignment-baseline:middle; text-anchor:middle;transform: translate(-1px, 0px);pointer-events:none;}
g#gSelected circle.turn {r:3; fill:purple}
#breezeways{fill:none; stroke:#E8E8E8; stroke-weight:2}

	    g#trace path{fill:none; stroke-width:1;stroke:red} 
	    g#trace polyline{fill:none; stroke-width:1;}
	    g#trace circle{fill:purple;stroke:none; r:2}



g#trace .trace0 {stroke:red}
.trace1 text{fill:green}
g#trace .trace1 polyline{stroke:green}
.trace2 text{fill:blue}
g#trace .trace2 polyline{ stroke:blue}

</style>


<g class="bounds">
</g>

<image x="0" y="0" href="../images/cw-fancy-projMAIstreets.jpg" height="372.75"  width="639.45px"/>
<g id="units" datafloor="floor1">
	<g id="floor1"></g>
	<g id="floor2"></g>
	<g id="floor3"></g>
</g>

<g id="unitNo">
<g id="unfloor1"> <text id="un_M-103" x="185.451" y="330.2715">103</text> <text id="un_M-105" x="203.292" y="333.7695">105</text> <text id="un_M-107" x="219.4473" y="336.9573">107</text> <text id="un_M-108" x="223.1455" y="325.9412">108</text> <text id="un_M-106" x="207.2841" y="322.8309">106</text> <text id="un_M-104" x="189.0367" y="319.2473">104</text> <text id="un_M-102" x="173.0316" y="316.1146">102</text> <text id="un_M-101" x="169.0131" y="327.0572">101</text> <text id="un_E-103" x="450.3211" y="61.6521">103</text> <text id="un_E-101" x="433.3615" y="55.5876">101</text> <text id="un_E-102" x="451.6483" y="52.0104">102</text> <text id="un_H-107" x="627.6699" y="223.8353">107</text> <text id="un_H-108" x="612.2271" y="224.9258">108</text> <text id="un_H-106" x="611.7679" y="211.0249">106</text> <text id="un_H-104" x="610.306" y="198.0091">104</text> <text id="un_H-102" x="607.1342" y="184.4482">102</text> <text id="un_D-108" x="427.6781" y="91.9508">108</text> <text id="un_D-106" x="425.3873" y="109.2546">106</text> <text id="un_D-104" x="422.824" y="128.6793">104</text> <text id="un_D-102" x="420.3481" y="145.8697">102</text> <text id="un_D-101" x="425.1232" y="159.2478">101</text> <text id="un_D-110" x="435.9793" y="79.151">110</text> <text id="un_D-103" x="433.0785" y="146.9322">103</text> <text id="un_D-105" x="435.2384" y="129.7719">105</text> <text id="un_D-107" x="437.9714" y="110.2975">107</text> <text id="un_D-109" x="440.2859" y="93.1429">109</text> <text id="un_H-101" x="623.6068" y="183.3539">101</text> <text id="un_E-104" x="474.2877" y="53.4698">104</text> <text id="un_E-105" x="473.0975" y="63.0589">105</text> <text id="un_E-107" x="497.6161" y="64.5789">107</text> <text id="un_E-106" x="498.8799" y="55.0036">106</text> <text id="un_E-108" x="521.4447" y="56.3999">108</text> <text id="un_E-109" x="520.2815" y="66.036">109</text> <text id="un_E-110" x="538.7629" y="62.2647">110</text> <text id="un_F-104" x="507.7451" y="92.7143">104</text> <text id="un_F-106" x="486.049" y="92.443">106</text> <text id="un_F-105" x="502.3229" y="101.6308">105</text> <text id="un_F-103" x="524.9503" y="109.5645">103</text> <text id="un_F-101" x="544.6978" y="113.0143">101</text> <text id="un_F-102" x="530.321" y="100.6272">102</text> <text id="un_G-101" x="488.968" y="143.7896">101</text> <text id="un_G-102" x="501.7429" y="145.1535">102</text> <text id="un_G-103" x="514.4921" y="144.5847">103</text> <text id="un_G-104" x="526.7485" y="144.533">104</text> <text id="un_G-105" x="539.9688" y="145.3898">105</text> <text id="un_G-106" x="552.8115" y="144.2028">106</text> <text id="un_I-104" x="554.097" y="201.9865">104</text> <text id="un_I-106" x="571.8126" y="193.0879">106</text> <text id="un_I-105" x="565.0314" y="207.2187">105</text> <text id="un_I-103" x="551.8197" y="223.2595">103</text> <text id="un_I-101" x="537.818" y="234.3606">101</text> <text id="un_I-102" x="540.8784" y="218.0526">102</text> <text id="un_J-103" x="461.3154" y="262.5829">103</text> <text id="un_J-107" x="507.4472" y="244.0091">107</text> <text id="un_J-108" x="500.2376" y="234.0738">108</text> <text id="un_J-106" x="485.8352" y="239.932">106</text> <text id="un_J-104" x="469.1058" y="246.5745">104</text> <text id="un_J-102" x="454.6516" y="252.4463">102</text> <text id="un_A-108" x="261.2235" y="251.7066">108</text> <text id="un_A-106" x="259.8711" y="234.6583">106</text> <text id="un_A-104" x="257.7951" y="214.6448">104</text> <text id="un_A-102" x="256.0285" y="197.1217">102</text> <text id="un_A-101" x="260.6946" y="183.1824">101</text> <text id="un_A-110" x="269.4182" y="263.4403">110</text> <text id="un_A-103" x="268.6807" y="196.6137">103</text> <text id="un_A-105" x="270.3869" y="214.0201">105</text> <text id="un_A-107" x="272.2865" y="234.1774">107</text> <text id="un_A-109" x="274.2126" y="251.0747">109</text> <text id="un_C-104" x="455.517" y="183.8492">104</text> <text id="un_C-106" x="469.8207" y="172.9042">106</text> <text id="un_C-105" x="448.3849" y="175.6526">105</text> <text id="un_C-103" x="427.678" y="186.1229">103</text> <text id="un_C-101" x="415.9491" y="200.0199">101</text> <text id="un_C-102" x="434.787" y="194.3317">102</text> <text id="un_B-104" x="358.6848" y="232.8787">104</text> <text id="un_B-106" x="378.6068" y="226.1021">106</text> <text id="un_B-105" x="355.3267" y="222.8109">105</text> <text id="un_B-103" x="330.018" y="227.8277">103</text> <text id="un_B-101" x="314.7167" y="238.3852">101</text> <text id="un_B-102" x="333.0938" y="237.5769">102</text> <text id="un_N-106" x="97.206" y="351.4792">106</text> <text id="un_N-105" x="98.2119" y="341.8299">105</text> <text id="un_N-104" x="97.1624" y="331.1664">104</text> <text id="un_N-103" x="94.6034" y="321.606">103</text> <text id="un_N-102" x="95.8893" y="312.4941">102</text> <text id="un_N-101" x="93.5618" y="303.0092">101</text> <text id="un_L-108" x="306.6672" y="312.8376">108</text> <text id="un_L-107" x="296.0679" y="300.2667">107</text> <text id="un_L-106" x="291.3955" y="311.8975">106</text> <text id="un_L-105" x="281.7654" y="315.7106">105</text> <text id="un_L-104" x="273.1656" y="319.888">104</text> <text id="un_L-103" x="264.4711" y="324.809">103</text> <text id="un_L-101" x="258.424" y="334.8572">101</text> <text id="un_L-102" x="248.4925" y="323.0309">102</text> <text id="un_K-108" x="431.6671" y="281.3895">108</text> <text id="un_K-107" x="420.5199" y="269.1459">107</text> <text id="un_K-106" x="416.3913" y="280.8205">106</text> <text id="un_K-105" x="407.031" y="285.0014">105</text> <text id="un_K-104" x="398.5944" y="289.3934">104</text> <text id="un_K-103" x="390.0956" y="294.5852">103</text> <text id="un_K-101" x="385.3175" y="305.4447">101</text> <text id="un_K-102" x="374.0195" y="293.2535">102</text> <text id="un_J-105" x="492.6286" y="249.8002">105</text> <text id="un_H-105" x="625.275" y="210.3">105</text> <text id="un_H-103" x="623.798" y="196.9024">103</text> </g>]
[<g id="unfloor2"> <text id="un_M-203" x="185.451" y="330.2715">203</text> <text id="un_M-205" x="203.292" y="333.7695">205</text> <text id="un_M-207" x="219.4473" y="336.9573">207</text> <text id="un_M-208" x="223.1455" y="325.9412">208</text> <text id="un_M-206" x="207.2841" y="322.8309">206</text> <text id="un_M-204" x="189.0367" y="319.2473">204</text> <text id="un_M-202" x="173.0316" y="316.1146">202</text> <text id="un_M-201" x="169.0131" y="327.0572">201</text> <text id="un_E-203" x="450.3211" y="61.6521">203</text> <text id="un_E-201" x="433.3615" y="55.5876">201</text> <text id="un_E-202" x="451.6483" y="52.0104">202</text> <text id="un_H-207" x="627.6699" y="223.8353">207</text> <text id="un_H-208" x="612.2271" y="224.9258">208</text> <text id="un_H-206" x="611.7679" y="211.0249">206</text> <text id="un_H-204" x="610.306" y="198.0091">204</text> <text id="un_H-202" x="607.1342" y="184.4482">202</text> <text id="un_D-208" x="427.6781" y="91.9508">208</text> <text id="un_D-206" x="425.3873" y="109.2546">206</text> <text id="un_D-204" x="422.824" y="128.6793">204</text> <text id="un_D-202" x="420.3481" y="145.8697">202</text> <text id="un_D-201" x="425.1232" y="159.2478">201</text> <text id="un_D-210" x="435.9793" y="79.151">210</text> <text id="un_D-203" x="433.0785" y="146.9322">203</text> <text id="un_D-205" x="435.2384" y="129.7719">205</text> <text id="un_D-207" x="437.9714" y="110.2975">207</text> <text id="un_D-209" x="440.2859" y="93.1429">209</text> <text id="un_H-201" x="623.6068" y="183.3539">201</text> <text id="un_E-204" x="474.2877" y="53.4698">204</text> <text id="un_E-205" x="473.0975" y="63.0589">205</text> <text id="un_E-207" x="497.6161" y="64.5789">207</text> <text id="un_E-206" x="498.8799" y="55.0036">206</text> <text id="un_E-208" x="521.4447" y="56.3999">208</text> <text id="un_E-209" x="520.2815" y="66.036">209</text> <text id="un_E-210" x="538.7629" y="62.2647">210</text> <text id="un_F-204" x="507.7451" y="92.7143">204</text> <text id="un_F-206" x="486.049" y="92.443">206</text> <text id="un_F-205" x="502.3229" y="101.6308">205</text> <text id="un_F-203" x="524.9503" y="109.5645">203</text> <text id="un_F-201" x="544.6978" y="113.0143">201</text> <text id="un_F-202" x="530.321" y="100.6272">202</text> <text id="un_G-201" x="488.968" y="143.7896">201</text> <text id="un_G-202" x="501.7429" y="145.1535">202</text> <text id="un_G-203" x="514.4921" y="144.5847">203</text> <text id="un_G-204" x="526.7485" y="144.533">204</text> <text id="un_G-205" x="539.9688" y="145.3898">205</text> <text id="un_G-206" x="552.8115" y="144.2028">206</text> <text id="un_I-204" x="554.097" y="201.9865">204</text> <text id="un_I-206" x="571.8126" y="193.0879">206</text> <text id="un_I-205" x="565.0314" y="207.2187">205</text> <text id="un_I-203" x="551.8197" y="223.2595">203</text> <text id="un_I-201" x="537.818" y="234.3606">201</text> <text id="un_I-202" x="540.8784" y="218.0526">202</text> <text id="un_J-203" x="461.3154" y="262.5829">203</text> <text id="un_J-207" x="507.4472" y="244.0091">207</text> <text id="un_J-208" x="500.2376" y="234.0738">208</text> <text id="un_J-206" x="485.8352" y="239.932">206</text> <text id="un_J-204" x="469.1058" y="246.5745">204</text> <text id="un_J-202" x="454.6516" y="252.4463">202</text> <text id="un_A-208" x="261.2235" y="251.7066">208</text> <text id="un_A-206" x="259.8711" y="234.6583">206</text> <text id="un_A-204" x="257.7951" y="214.6448">204</text> <text id="un_A-202" x="256.0285" y="197.1217">202</text> <text id="un_A-201" x="260.6946" y="183.1824">201</text> <text id="un_A-210" x="269.4182" y="263.4403">210</text> <text id="un_A-203" x="268.6807" y="196.6137">203</text> <text id="un_A-205" x="270.3869" y="214.0201">205</text> <text id="un_A-207" x="272.2865" y="234.1774">207</text> <text id="un_A-209" x="274.2126" y="251.0747">209</text> <text id="un_C-204" x="455.517" y="183.8492">204</text> <text id="un_C-206" x="469.8207" y="172.9042">206</text> <text id="un_C-205" x="448.3849" y="175.6526">205</text> <text id="un_C-203" x="427.678" y="186.1229">203</text> <text id="un_C-201" x="415.9491" y="200.0199">201</text> <text id="un_C-202" x="434.787" y="194.3317">202</text> <text id="un_B-204" x="358.6848" y="232.8787">204</text> <text id="un_B-206" x="378.6068" y="226.1021">206</text> <text id="un_B-205" x="355.3267" y="222.8109">205</text> <text id="un_B-203" x="330.018" y="227.8277">203</text> <text id="un_B-201" x="314.7167" y="238.3852">201</text> <text id="un_B-202" x="333.0938" y="237.5769">202</text> <text id="un_N-206" x="97.206" y="351.4792">206</text> <text id="un_N-205" x="98.2119" y="341.8299">205</text> <text id="un_N-204" x="97.1624" y="331.1664">204</text> <text id="un_N-203" x="94.6034" y="321.606">203</text> <text id="un_N-202" x="95.8893" y="312.4941">202</text> <text id="un_N-201" x="93.5618" y="303.0092">201</text> <text id="un_L-208" x="306.6672" y="312.8376">208</text> <text id="un_L-207" x="296.0679" y="300.2667">207</text> <text id="un_L-206" x="291.3955" y="311.8975">206</text> <text id="un_L-205" x="281.7654" y="315.7106">205</text> <text id="un_L-204" x="273.1656" y="319.888">204</text> <text id="un_L-203" x="264.4711" y="324.809">203</text> <text id="un_L-201" x="258.424" y="334.8572">201</text> <text id="un_L-202" x="248.4925" y="323.0309">202</text> <text id="un_K-208" x="431.6671" y="281.3895">208</text> <text id="un_K-207" x="420.5199" y="269.1459">207</text> <text id="un_K-206" x="416.3913" y="280.8205">206</text> <text id="un_K-205" x="407.031" y="285.0014">205</text> <text id="un_K-204" x="398.5944" y="289.3934">204</text> <text id="un_K-203" x="390.0956" y="294.5852">203</text> <text id="un_K-201" x="385.3175" y="305.4447">201</text> <text id="un_K-202" x="374.0195" y="293.2535">202</text> <text id="un_J-205" x="492.6286" y="249.8002">205</text> <text id="un_H-205" x="625.275" y="210.3">205</text> <text id="un_H-203" x="623.798" y="196.9024">203</text> </g>
<g id="unfloor3"> <text id="un_M-303" x="185.451" y="330.2715">303</text> <text id="un_M-305" x="203.292" y="333.7695">305</text> <text id="un_M-307" x="219.4473" y="336.9573">307</text> <text id="un_M-308" x="223.1455" y="325.9412">308</text> <text id="un_M-306" x="207.2841" y="322.8309">306</text> <text id="un_M-304" x="189.0367" y="319.2473">304</text> <text id="un_M-302" x="173.0316" y="316.1146">302</text> <text id="un_M-301" x="169.0131" y="327.0572">301</text> <text id="un_E-303" x="450.3211" y="61.6521">303</text> <text id="un_E-301" x="433.3615" y="55.5876">301</text> <text id="un_E-302" x="451.6483" y="52.0104">302</text> <text id="un_H-307" x="627.6699" y="223.8353">307</text> <text id="un_H-308" x="612.2271" y="224.9258">308</text> <text id="un_H-306" x="611.7679" y="211.0249">306</text> <text id="un_H-304" x="610.306" y="198.0091">304</text> <text id="un_H-302" x="607.1342" y="184.4482">302</text> <text id="un_D-308" x="427.6781" y="91.9508">308</text> <text id="un_D-306" x="425.3873" y="109.2546">306</text> <text id="un_D-304" x="422.824" y="128.6793">304</text> <text id="un_D-302" x="420.3481" y="145.8697">302</text> <text id="un_D-301" x="425.1232" y="159.2478">301</text> <text id="un_D-310" x="435.9793" y="79.151">310</text> <text id="un_D-303" x="433.0785" y="146.9322">303</text> <text id="un_D-305" x="435.2384" y="129.7719">305</text> <text id="un_D-307" x="437.9714" y="110.2975">307</text> <text id="un_D-309" x="440.2859" y="93.1429">309</text> <text id="un_H-301" x="623.6068" y="183.3539">301</text> <text id="un_E-304" x="474.2877" y="53.4698">304</text> <text id="un_E-305" x="473.0975" y="63.0589">305</text> <text id="un_E-307" x="497.6161" y="64.5789">307</text> <text id="un_E-306" x="498.8799" y="55.0036">306</text> <text id="un_E-308" x="521.4447" y="56.3999">308</text> <text id="un_E-309" x="520.2815" y="66.036">309</text> <text id="un_E-310" x="538.7629" y="62.2647">310</text> <text id="un_F-304" x="507.7451" y="92.7143">304</text> <text id="un_F-306" x="486.049" y="92.443">306</text> <text id="un_F-305" x="502.3229" y="101.6308">305</text> <text id="un_F-303" x="524.9503" y="109.5645">303</text> <text id="un_F-301" x="544.6978" y="113.0143">301</text> <text id="un_F-302" x="530.321" y="100.6272">302</text> <text id="un_G-301" x="488.968" y="143.7896">301</text> <text id="un_G-302" x="501.7429" y="145.1535">302</text> <text id="un_G-303" x="514.4921" y="144.5847">303</text> <text id="un_G-304" x="526.7485" y="144.533">304</text> <text id="un_G-305" x="539.9688" y="145.3898">305</text> <text id="un_G-306" x="552.8115" y="144.2028">306</text> <text id="un_I-304" x="554.097" y="201.9865">304</text> <text id="un_I-306" x="571.8126" y="193.0879">306</text> <text id="un_I-305" x="565.0314" y="207.2187">305</text> <text id="un_I-303" x="551.8197" y="223.2595">303</text> <text id="un_I-301" x="537.818" y="234.3606">301</text> <text id="un_I-302" x="540.8784" y="218.0526">302</text> <text id="un_J-303" x="461.3154" y="262.5829">303</text> <text id="un_J-307" x="507.4472" y="244.0091">307</text> <text id="un_J-308" x="500.2376" y="234.0738">308</text> <text id="un_J-306" x="485.8352" y="239.932">306</text> <text id="un_J-304" x="469.1058" y="246.5745">304</text> <text id="un_J-302" x="454.6516" y="252.4463">302</text> <text id="un_A-308" x="261.2235" y="251.7066">308</text> <text id="un_A-306" x="259.8711" y="234.6583">306</text> <text id="un_A-304" x="257.7951" y="214.6448">304</text> <text id="un_A-302" x="256.0285" y="197.1217">302</text> <text id="un_A-301" x="260.6946" y="183.1824">301</text> <text id="un_A-310" x="269.4182" y="263.4403">310</text> <text id="un_A-303" x="268.6807" y="196.6137">303</text> <text id="un_A-305" x="270.3869" y="214.0201">305</text> <text id="un_A-307" x="272.2865" y="234.1774">307</text> <text id="un_A-309" x="274.2126" y="251.0747">309</text> <text id="un_C-304" x="455.517" y="183.8492">304</text> <text id="un_C-306" x="469.8207" y="172.9042">306</text> <text id="un_C-305" x="448.3849" y="175.6526">305</text> <text id="un_C-303" x="427.678" y="186.1229">303</text> <text id="un_C-301" x="415.9491" y="200.0199">301</text> <text id="un_C-302" x="434.787" y="194.3317">302</text> <text id="un_B-304" x="358.6848" y="232.8787">304</text> <text id="un_B-306" x="378.6068" y="226.1021">306</text> <text id="un_B-305" x="355.3267" y="222.8109">305</text> <text id="un_B-303" x="330.018" y="227.8277">303</text> <text id="un_B-301" x="314.7167" y="238.3852">301</text> <text id="un_B-302" x="333.0938" y="237.5769">302</text> <text id="un_N-306" x="97.206" y="351.4792">306</text> <text id="un_N-305" x="98.2119" y="341.8299">305</text> <text id="un_N-304" x="97.1624" y="331.1664">304</text> <text id="un_N-303" x="94.6034" y="321.606">303</text> <text id="un_N-302" x="95.8893" y="312.4941">302</text> <text id="un_N-301" x="93.5618" y="303.0092">301</text> <text id="un_L-308" x="306.6672" y="312.8376">308</text> <text id="un_L-307" x="296.0679" y="300.2667">307</text> <text id="un_L-306" x="291.3955" y="311.8975">306</text> <text id="un_L-305" x="281.7654" y="315.7106">305</text> <text id="un_L-304" x="273.1656" y="319.888">304</text> <text id="un_L-303" x="264.4711" y="324.809">303</text> <text id="un_L-301" x="258.424" y="334.8572">301</text> <text id="un_L-302" x="248.4925" y="323.0309">302</text> <text id="un_K-308" x="431.6671" y="281.3895">308</text> <text id="un_K-307" x="420.5199" y="269.1459">307</text> <text id="un_K-306" x="416.3913" y="280.8205">306</text> <text id="un_K-305" x="407.031" y="285.0014">305</text> <text id="un_K-304" x="398.5944" y="289.3934">304</text> <text id="un_K-303" x="390.0956" y="294.5852">303</text> <text id="un_K-301" x="385.3175" y="305.4447">301</text> <text id="un_K-302" x="374.0195" y="293.2535">302</text> <text id="un_J-305" x="492.6286" y="249.8002">305</text> <text id="un_H-305" x="625.275" y="210.3">305</text> <text id="un_H-303" x="623.798" y="196.9024">303</text> </g>
</g>

<g id="bn">
<circle cx="80.25" cy="298.95" />
<text id="bn_N" x="80.25" y="298.95" >N</text>
<circle cx="166.5" cy="308.4" />
<text id="bn_M" x="166.5" y="308.4" >M</text>
<circle cx="239.25" cy="318.6" />
<text id="bn_L" x="239.25" y="318.6" >L</text>
<circle cx="249.6" cy="178.35" />
<text id="bn_A" x="249.6" y="178.35" >A</text>
<circle cx="303.0" cy="227.7" />
<text id="bn_B" x="303.0" y="227.7" >B</text>
<circle cx="364.8" cy="289.05" />
<text id="bn_K" x="364.8" y="289.05" >K</text>
<circle cx="445.5" cy="250.65" />
<text id="bn_J" x="445.5" y="250.65" >J</text>
<circle cx="566.25" cy="182.1" />
<text id="bn_I" x="566.25" y="182.1" >I</text>
<circle cx="597.9" cy="178.5" />
<text id="bn_H" x="597.9" y="178.5" >H</text>
<circle cx="405.9" cy="192.75" />
<text id="bn_C" x="405.9" y="192.75" >C</text>
<circle cx="425.7" cy="72.6" />
<text id="bn_D" x="425.7" y="72.6" >D</text>
<circle cx="484.05" cy="133.8" />
<text id="bn_G" x="484.05" y="133.8" >G</text>
<circle cx="477.6" cy="77.7" />
<text id="bn_F" x="477.6" y="77.7" >F</text>
<circle cx="431.4" cy="44.1" />
<text id="bn_E" x="431.4" y="44.1" >E</text>

</g>
<g id="stacked">
	</g>
<g id="amenities">
	</g>
	<g id="breezeways">	
	<line  x1="218.149" y1="318.201" x2="209.75" y2="342.05"/>
	<line  x1="294.5" y1="323.15" x2="280.25" y2="305.9"/>
	<line  x1="175.7" y1="335.15" x2="183.95" y2="311.3"/>
	<line  x1="276.5" y1="331.701" x2="262.4" y2="314.599"/>
	<line  x1="402.5" y1="301.099" x2="387.5" y2="284.451"/>
	<line  x1="420.049" y1="291.951" x2="405.049" y2="275.3"/>
	<line  x1="473.299" y1="265.849" x2="458.15" y2="244.099"/>
	<line  x1="504.5" y1="253.25" x2="489.5" y2="231.5"/>
	<line  x1="563.6" y1="218" x2="543.5" y2="208.4"/>
	<line  x1="606.65" y1="218.75" x2="633.199" y2="217.099"/>
	<line  x1="603.799" y1="192.05" x2="630.35" y2="190.4"/>
	<line  x1="511.4" y1="109.925" x2="521.75" y2="93.5"/>
	<line  x1="416.465" y1="138.5" x2="439.4" y2="140.3"/>
	<line  x1="422" y1="100.55" x2="444.65" y2="102.5"/>
	<line  x1="461.449" y1="66.65" x2="463.699" y2="49.55"/>
	<line  x1="509.15" y1="69.65" x2="511.4" y2="52.4"/>
	<line  x1="252.05" y1="206.75" x2="274.7" y2="205.701"/>
	<line  x1="256.4" y1="246.05" x2="279.049" y2="244.849"/>
	<line  x1="339.65" y1="218.3" x2="347.449" y2="242"/>
	<line  x1="435.65" y1="177.95" x2="448.699" y2="193.099"/>
	</g>

		<g id="gSelected">
			
		</g>

<g id="sw">
	<line id="sw_0" x1="94.5" y1="291.9" x2="112.2" y2="291.3"/><line id="sw_1" x1="112.2" y1="291.3" x2="133.65" y2="290.7"/><line id="sw_2" x1="133.65" y1="290.7" x2="248.7" y2="277.05"/><line id="sw_3" x1="248.7" y1="277.05" x2="245.1" y2="245.85"/><line id="sw_4" x1="245.1" y1="245.85" x2="240.75" y2="206.55"/><line id="sw_5" x1="240.75" y1="206.55" x2="237.3" y2="176.4"/><line id="sw_6" x1="382.35" y1="170.1" x2="397.95" y2="163.2"/><line id="sw_7" x1="397.95" y1="163.2" x2="405.6" y2="168"/><line id="sw_8" x1="405.6" y1="168" x2="420.3" y2="177"/><line id="sw_9" x1="420.3" y1="177" x2="390.15" y2="209.7"/><line id="sw_10" x1="390.15" y1="209.7" x2="362.4" y2="201.9"/><line id="sw_11" x1="355.8" y1="206.1" x2="338.7" y2="216.75"/><line id="sw_12" x1="318.15" y1="222" x2="301.5" y2="228.45"/><line id="sw_13" x1="301.5" y1="228.45" x2="303.75" y2="236.1"/><line id="sw_14" x1="303.75" y1="236.1" x2="298.5" y2="240.45"/><line id="sw_15" x1="298.5" y1="240.45" x2="301.95" y2="243.3"/><line id="sw_16" x1="301.95" y1="243.3" x2="316.8" y2="254.85"/><line id="sw_17" x1="293.85" y1="182.7" x2="287.7" y2="189.6"/><line id="sw_18" x1="287.7" y1="189.6" x2="289.05" y2="204.9"/><line id="sw_19" x1="289.05" y1="204.9" x2="291.3" y2="231"/><line id="sw_20" x1="291.3" y1="231" x2="298.5" y2="240.45"/><line id="sw_21" x1="338.7" y1="216.75" x2="382.95" y2="211.35"/><line id="sw_22" x1="382.95" y1="211.35" x2="393.9" y2="223.35"/><line id="sw_23" x1="393.9" y1="223.35" x2="399.9" y2="229.95"/><line id="sw_24" x1="390.15" y1="209.7" x2="407.7" y2="225.75"/><line id="sw_25" x1="316.65" y1="255.15" x2="316.8" y2="255.15"/><line id="sw_26" x1="316.8" y1="255.15" x2="349.65" y2="249.45"/><line id="sw_27" x1="349.65" y1="249.45" x2="360.6" y2="247.5"/><line id="sw_28" x1="360.6" y1="247.5" x2="389.4" y2="235.65"/><line id="sw_29" x1="389.4" y1="235.65" x2="399.9" y2="229.95"/><line id="sw_30" x1="316.8" y1="255.15" x2="315.75" y2="258.6"/><line id="sw_31" x1="315.75" y1="258.6" x2="313.65" y2="259.8"/><line id="sw_32" x1="313.65" y1="259.8" x2="300.6" y2="259.2"/><line id="sw_33" x1="300.6" y1="259.2" x2="296.85" y2="261.15"/><line id="sw_34" x1="296.85" y1="261.15" x2="291.15" y2="269.1"/><line id="sw_35" x1="291.15" y1="269.1" x2="284.55" y2="271.65"/><line id="sw_36" x1="284.55" y1="271.65" x2="269.1" y2="275.4"/><line id="sw_37" x1="269.1" y1="275.4" x2="258.6" y2="278.1"/><line id="sw_38" x1="258.6" y1="278.1" x2="248.7" y2="277.05"/><line id="sw_39" x1="99.45" y1="357.15" x2="117.45" y2="356.25"/><line id="sw_40" x1="117.45" y1="356.25" x2="116.4" y2="343.8"/><line id="sw_41" x1="116.4" y1="343.8" x2="115.65" y2="333"/><line id="sw_42" x1="115.65" y1="333" x2="115.05" y2="326.85"/><line id="sw_43" x1="115.05" y1="326.85" x2="114.75" y2="323.4"/><line id="sw_44" x1="114.75" y1="323.4" x2="113.7" y2="310.35"/><line id="sw_45" x1="113.7" y1="310.35" x2="113.55" y2="309"/><line id="sw_46" x1="113.55" y1="309" x2="112.2" y2="291.3"/><line id="sw_47" x1="153.3" y1="308.25" x2="153.45" y2="331.95"/><line id="sw_48" x1="153.45" y1="331.95" x2="174.75" y2="336"/><line id="sw_49" x1="174.75" y1="336" x2="208.95" y2="342.45"/><line id="sw_50" x1="208.95" y1="342.45" x2="228.9" y2="346.2"/><line id="sw_51" x1="228.9" y1="346.2" x2="232.95" y2="333.45"/><line id="sw_52" x1="232.95" y1="333.45" x2="236.85" y2="320.85"/><line id="sw_53" x1="236.85" y1="320.85" x2="232.5" y2="303.3"/><line id="sw_54" x1="232.5" y1="303.3" x2="248.7" y2="298.35"/><line id="sw_55" x1="248.7" y1="298.35" x2="303.75" y2="280.95"/><line id="sw_56" x1="303.75" y1="280.95" x2="306.75" y2="280.35"/><line id="sw_57" x1="306.75" y1="280.35" x2="340.65" y2="274.05"/><line id="sw_58" x1="340.65" y1="274.05" x2="358.8" y2="276.3"/><line id="sw_59" x1="358.8" y1="276.3" x2="376.95" y2="278.7"/><line id="sw_60" x1="376.95" y1="278.7" x2="380.55" y2="276.6"/><line id="sw_61" x1="380.55" y1="276.6" x2="397.8" y2="267.45"/><line id="sw_62" x1="397.8" y1="267.45" x2="432.3" y2="249"/><line id="sw_63" x1="432.3" y1="249" x2="447.45" y2="264.6"/><line id="sw_64" x1="447.45" y1="264.6" x2="454.2" y2="271.5"/><line id="sw_65" x1="454.2" y1="271.5" x2="458.4" y2="279.6"/><line id="sw_66" x1="458.4" y1="279.6" x2="423.6" y2="295.95"/><line id="sw_67" x1="423.6" y1="295.95" x2="401.1" y2="306.6"/><line id="sw_68" x1="495.15" y1="215.1" x2="524.7" y2="246"/><line id="sw_69" x1="567.6" y1="180.6" x2="597.3" y2="187.2"/><line id="sw_70" x1="597.3" y1="187.2" x2="597.75" y2="191.7"/><line id="sw_71" x1="597.75" y1="191.7" x2="599.25" y2="205.35"/><line id="sw_72" x1="599.25" y1="205.35" x2="588.15" y2="219"/><line id="sw_73" x1="540" y1="162.75" x2="535.2" y2="164.55"/><line id="sw_74" x1="535.2" y1="164.55" x2="524.1" y2="169.05"/><line id="sw_75" x1="524.1" y1="169.05" x2="498.3" y2="179.4"/><line id="sw_76" x1="498.3" y1="179.4" x2="483" y2="166.05"/><line id="sw_77" x1="483" y1="166.05" x2="472.2" y2="156.6"/><line id="sw_78" x1="482.7" y1="132.3" x2="502.35" y2="126.75"/><line id="sw_79" x1="502.35" y1="126.75" x2="507.9" y2="130.5"/><line id="sw_80" x1="507.9" y1="130.5" x2="511.8" y2="131.25"/><line id="sw_81" x1="511.8" y1="131.25" x2="546.45" y2="124.65"/><line id="sw_82" x1="546.45" y1="124.65" x2="509.7" y2="111.6"/><line id="sw_83" x1="509.7" y1="111.6" x2="466.05" y2="96.15"/><line id="sw_84" x1="466.05" y1="96.15" x2="459.75" y2="81.9"/><line id="sw_85" x1="459.75" y1="81.9" x2="457.5" y2="102.9"/><line id="sw_86" x1="457.5" y1="102.9" x2="453.3" y2="141"/><line id="sw_87" x1="453.3" y1="141" x2="450.75" y2="163.5"/><line id="sw_88" x1="450.75" y1="163.5" x2="445.05" y2="168.9"/><line id="sw_89" x1="445.05" y1="168.9" x2="422.7" y2="171.6"/><line id="sw_90" x1="397.95" y1="163.2" x2="402.9" y2="136.95"/><line id="sw_91" x1="402.9" y1="136.95" x2="409.5" y2="99.15"/><line id="sw_92" x1="409.5" y1="99.15" x2="415.05" y2="67.8"/><line id="sw_93" x1="415.05" y1="67.8" x2="438" y2="70.65"/><line id="sw_94" x1="438" y1="70.65" x2="460.05" y2="73.35"/><line id="sw_95" x1="460.05" y1="73.35" x2="507.75" y2="75.9"/><line id="sw_96" x1="507.75" y1="75.9" x2="562.35" y2="80.1"/><line id="sw_97" x1="563.85" y1="96.15" x2="547.65" y2="98.85"/><line id="sw_98" x1="547.65" y1="98.85" x2="525.6" y2="86.25"/><line id="sw_99" x1="525.6" y1="86.25" x2="507.75" y2="75.9"/><line id="sw_100" x1="472.2" y1="156.6" x2="472.8" y2="144.75"/><line id="sw_101" x1="472.8" y1="144.75" x2="482.7" y2="132.3"/><line id="sw_102" x1="422.7" y1="171.6" x2="405.6" y2="168"/><line id="sw_103" x1="420.3" y1="177" x2="422.7" y2="171.6"/><line id="sw_104" x1="546.45" y1="124.65" x2="549.3" y2="124.8"/><line id="sw_105" x1="549.3" y1="124.8" x2="566.7" y2="126.3"/><line id="sw_106" x1="561.45" y1="104.85" x2="547.65" y2="98.85"/><line id="sw_107" x1="559.5" y1="50.7" x2="463.95" y2="43.65"/><line id="sw_108" x1="463.95" y1="43.65" x2="419.85" y2="40.5"/><line id="sw_109" x1="415.05" y1="67.8" x2="417.45" y2="54.15"/><line id="sw_110" x1="417.45" y1="54.15" x2="419.85" y2="40.5"/><line id="sw_111" x1="498.3" y1="179.4" x2="455.7" y2="201.15"/><line id="sw_112" x1="455.7" y1="201.15" x2="421.95" y2="218.25"/><line id="sw_113" x1="514.8" y1="162.45" x2="524.1" y2="169.05"/><line id="sw_114" x1="531.6" y1="160.65" x2="535.2" y2="164.55"/><line id="sw_115" x1="153.3" y1="308.25" x2="185.1" y2="306.3"/><line id="sw_116" x1="185.1" y1="306.3" x2="221.85" y2="304.05"/><line id="sw_117" x1="221.85" y1="304.05" x2="232.5" y2="303.3"/><line id="sw_118" x1="153.45" y1="331.95" x2="115.65" y2="333"/><line id="sw_119" x1="153.3" y1="308.25" x2="113.7" y2="310.35"/><line id="sw_120" x1="313.95" y1="290.25" x2="306.75" y2="280.35"/><line id="sw_121" x1="359.4" y1="301.65" x2="358.8" y2="276.3"/><line id="sw_122" x1="432.3" y1="249" x2="453.45" y2="237.45"/><line id="sw_123" x1="453.45" y1="237.45" x2="482.4" y2="221.85"/><line id="sw_124" x1="482.4" y1="221.85" x2="495.15" y2="215.1"/><line id="sw_125" x1="495.15" y1="215.1" x2="524.85" y2="199.2"/><line id="sw_126" x1="524.85" y1="199.2" x2="543.9" y2="189"/><line id="sw_127" x1="543.9" y1="189" x2="567.6" y2="180.6"/><line id="sw_128" x1="570.75" y1="175.8" x2="540" y2="162.75"/><line id="sw_129" x1="540" y1="162.6" x2="543.45" y2="160.2"/><line id="sw_130" x1="549.3" y1="124.8" x2="554.55" y2="116.25"/><line id="sw_131" x1="554.55" y1="116.25" x2="561.45" y2="104.85"/><line id="sw_132" x1="293.85" y1="182.7" x2="293.4" y2="174.75"/><line id="sw_133" x1="450.75" y1="163.5" x2="472.2" y2="156.6"/><line id="sw_134" x1="355.35" y1="193.2" x2="353.4" y2="173.1"/><line id="sw_135" x1="362.4" y1="201.9" x2="355.35" y2="193.2"/><line id="sw_136" x1="399.9" y1="229.95" x2="407.7" y2="225.75"/><line id="sw_137" x1="407.7" y1="225.75" x2="421.95" y2="218.25"/><line id="sw_138" x1="318.15" y1="222" x2="338.7" y2="216.75"/><line id="sw_139" x1="355.35" y1="193.2" x2="355.8" y2="206.1"/><line id="sw_140" x1="355.8" y1="206.1" x2="362.4" y2="201.9"/><line id="sw_141" x1="466.05" y1="96.15" x2="474.3" y2="88.2"/><line id="sw_142" x1="459.75" y1="81.9" x2="460.05" y2="73.35"/><line id="sw_143" x1="420.3" y1="177" x2="431.4" y2="173.4"/><line id="sw_144" x1="431.4" y1="173.4" x2="445.05" y2="168.9"/><line id="sw_145" x1="571.8" y1="221.7" x2="582" y2="226.5"/><line id="sw_146" x1="588.15" y1="219" x2="582" y2="226.5"/><line id="sw_147" x1="543.45" y1="160.2" x2="569.7" y2="156.9"/><line id="sw_148" x1="569.7" y1="156.9" x2="568.8" y2="147.6"/><line id="sw_149" x1="568.8" y1="147.6" x2="566.7" y2="126.3"/><line id="sw_150" x1="566.7" y1="126.3" x2="563.85" y2="96.15"/><line id="sw_151" x1="563.85" y1="96.15" x2="562.35" y2="80.1"/><line id="sw_152" x1="562.35" y1="80.1" x2="560.85" y2="64.65"/><line id="sw_153" x1="560.85" y1="64.65" x2="559.5" y2="50.7"/><line id="sw_154" x1="237.3" y1="176.4" x2="330.15" y2="173.7"/><line id="sw_155" x1="330.15" y1="173.7" x2="353.4" y2="173.1"/><line id="sw_156" x1="353.4" y1="173.1" x2="373.8" y2="172.5"/><line id="sw_157" x1="373.8" y1="172.5" x2="382.35" y2="170.1"/><line id="sw_158" x1="498.3" y1="179.4" x2="524.85" y2="199.2"/><line id="sw_159" x1="455.7" y1="201.15" x2="495.15" y2="215.1"/><line id="sw_160" x1="407.7" y1="225.75" x2="432.3" y2="249"/><line id="sw_161" x1="358.8" y1="276.3" x2="349.65" y2="249.45"/><line id="sw_162" x1="306.75" y1="280.35" x2="291.15" y2="269.1"/><line id="sw_163" x1="269.7" y1="291.75" x2="258.9" y2="277.95"/><line id="sw_164" x1="248.7" y1="298.35" x2="248.7" y2="277.05"/><line id="sw_165" x1="232.5" y1="303.3" x2="248.7" y2="277.05"/><line id="sw_166" x1="153.3" y1="308.25" x2="133.65" y2="290.7"/><line id="sw_167" x1="570.75" y1="175.8" x2="569.7" y2="156.9"/><line id="sw_168" x1="567.6" y1="180.6" x2="570.75" y2="175.8"/></g>

	 <g id="geoMarker" transform="matrix(1 0 0 1 322 172)"> 
	<circle fill="#0B90E1" stroke="#333" cx="0" cy="0" r="4"/>
	</g>
	 <g id="trace"> 

	</g>



</svg>