<?xml version="1.0" encoding="utf-8"?>
<!-- Generator: Adobe Illustrator 15.0.0, SVG Export Plug-In . SVG Version: 6.00 Build 0)  -->
<!DOCTYPE svg PUBLIC "-//W3C//DTD SVG 1.1//EN" "http://www.w3.org/Graphics/SVG/1.1/DTD/svg11.dtd">
<svg version="1.1" id="Layer_1" xmlns="http://www.w3.org/2000/svg" xmlns:xlink="http://www.w3.org/1999/xlink" x="0px" y="0px"
	 width="30px" height="30px" viewBox="0 0 30 30" enable-background="new 0 0 30 30" xml:space="preserve">

	<path fill="#FFFFFF" d="M22.715,7.455H7.285C6.576,7.455,6,8.03,6,8.736v9.424c0,0.707,0.576,1.282,1.285,1.282h0.662v2.227
		c0,0.271,0.159,0.519,0.417,0.637c0.093,0.039,0.188,0.059,0.281,0.059c0.167,0,0.329-0.06,0.449-0.164l3.297-2.758h10.324
		c0.708,0,1.285-0.575,1.285-1.282V8.736C24,8.03,23.423,7.455,22.715,7.455z M11.686,18.214l-2.344,1.964v-1.432
		c0-0.383-0.313-0.694-0.698-0.694H7.396V8.847h15.209v9.205H12.134C11.972,18.052,11.813,18.109,11.686,18.214z"/>
	<path fill="#FFFFFF" d="M10.276,12.737h9.283c0.388,0,0.704-0.315,0.704-0.702c0-0.388-0.315-0.702-0.704-0.702h-9.283
		c-0.388,0-0.704,0.314-0.704,0.702C9.572,12.422,9.888,12.737,10.276,12.737z"/>
	<path fill="#FFFFFF" d="M20.263,15.198c0-0.388-0.315-0.704-0.704-0.704h-9.283c-0.388,0-0.704,0.315-0.704,0.704
		c0,0.388,0.316,0.702,0.704,0.702h9.283C19.947,15.9,20.263,15.585,20.263,15.198z"/>

</svg>
