<?xml version="1.0" encoding="utf-8"?>
<!-- Generator: Adobe Illustrator 15.0.0, SVG Export Plug-In . SVG Version: 6.00 Build 0)  -->
<!DOCTYPE svg PUBLIC "-//W3C//DTD SVG 1.1//EN" "http://www.w3.org/Graphics/SVG/1.1/DTD/svg11.dtd">
<svg version="1.1" id="Layer_1" xmlns="http://www.w3.org/2000/svg" xmlns:xlink="http://www.w3.org/1999/xlink" x="0px" y="0px"
	 width="16px" height="23.523px" viewBox="-2.512 0 16 23.523" enable-background="new -2.512 0 16 23.523" xml:space="preserve">
<path d="M10.555,7.162C10.555,3.206,8.195,0,5.278,0C2.363,0,0,3.206,0,7.162c0,1.49,0.338,2.872,0.912,4.018H0.91L5.278,20
	l4.367-8.82H9.643C10.215,10.034,10.555,8.652,10.555,7.162z"/>
<circle fill="#FFFFFF" cx="5.278" cy="7.6" r="3.6"/>
<path fill="none" stroke="#000000" stroke-miterlimit="10" d="M9.578,17.465c2.053,0.539,3.41,1.474,3.41,2.535
	c0,1.67-3.357,3.023-7.5,3.023s-7.5-1.354-7.5-3.023c0-1.2,1.735-2.237,4.25-2.726"/>
</svg>
