<?xml version="1.0" encoding="utf-8"?>
<!-- Generator: Adobe Illustrator 15.0.0, SVG Export Plug-In . SVG Version: 6.00 Build 0)  -->
<!DOCTYPE svg PUBLIC "-//W3C//DTD SVG 1.1//EN" "http://www.w3.org/Graphics/SVG/1.1/DTD/svg11.dtd">
<svg version="1.1" id="Layer_1" xmlns="http://www.w3.org/2000/svg" xmlns:xlink="http://www.w3.org/1999/xlink" x="0px" y="0px"
	 width="14.949px" height="20px" viewBox="0 0 14.949 20" enable-background="new 0 0 14.949 20" xml:space="preserve">
<g>
	<g>
		<g id="XMLID_1_">
			<g>
				<path fill="#626971" d="M1.94,6.78c0,3.05,2.48,5.541,5.53,5.541c3.05,0,5.54-2.49,5.54-5.541c0-3.05-2.49-5.53-5.54-5.53
					C4.42,1.25,1.94,3.73,1.94,6.78z M1.04,6.78c0-3.55,2.88-6.43,6.43-6.43c3.549,0,6.44,2.88,6.44,6.43
					c0,1.88-0.811,3.34-2.11,5.1l-4.33,5.66c-0.66-0.85-3.5-4.53-4.33-5.65C1.84,10.12,1.04,8.66,1.04,6.78z"/>
				<path fill="#626971" d="M10.65,15.98c2.69,0.34,4.3,1.06,4.3,1.92c0,0.42-0.37,0.8-1.11,1.13c-0.02,0.01-0.04,0.02-0.07,0.02
					c-0.06,0-0.13-0.04-0.149-0.109c-0.04-0.08,0-0.19,0.08-0.221c0.58-0.26,0.899-0.56,0.899-0.819c0-0.521-1.25-1.23-4-1.57
					c-0.09-0.021-0.16-0.1-0.15-0.2C10.47,16.04,10.55,15.97,10.65,15.98z"/>
				<path fill="#626971" d="M5.59,16.95c0.01,0.09-0.06,0.17-0.16,0.18c-0.49,0.061-0.93,0.14-1.31,0.23c-0.01,0-0.02,0-0.04,0
					c-0.08,0-0.15-0.051-0.17-0.13c-0.02-0.091,0.04-0.19,0.13-0.211c0.39-0.09,0.84-0.17,1.36-0.229
					C5.49,16.78,5.58,16.85,5.59,16.95z"/>
				<path fill="#626971" d="M2.73,17.87c0-0.2,0.13-0.38,0.4-0.53c0.09-0.04,0.19-0.01,0.24,0.07C3.42,17.49,3.39,17.6,3.3,17.64
					c-0.17,0.101-0.23,0.181-0.23,0.23c0,0.29,1.51,0.83,4.4,0.83c2.9,0,4.41-0.54,4.41-0.83c0-0.17-0.68-0.59-2.69-0.771
					c-0.09-0.01-0.16-0.09-0.16-0.18c0.01-0.1,0.1-0.17,0.19-0.16c0.9,0.08,3,0.351,3,1.11c0,0.81-2.46,1.18-4.75,1.18
					C5.19,19.05,2.73,18.68,2.73,17.87z"/>
				<path fill="#626971" d="M7.47,12.32c-3.05,0-5.53-2.49-5.53-5.541c0-3.05,2.48-5.53,5.53-5.53c3.05,0,5.54,2.48,5.54,5.53
					C13.01,9.83,10.52,12.32,7.47,12.32z M2.29,6.78c0,2.86,2.32,5.19,5.18,5.19c2.86,0,5.19-2.33,5.19-5.19
					c0-2.86-2.33-5.18-5.19-5.18C4.61,1.6,2.29,3.92,2.29,6.78z"/>
				<path fill="#626971" d="M0.69,6.78C0.69,3.04,3.73,0,7.47,0c1.87,0,3.57,0.76,4.79,1.99c1.23,1.23,1.99,2.92,1.99,4.79
					c0,1.97-0.83,3.49-2.17,5.31L7.47,18.11L7.34,17.93c-0.04-0.05-3.54-4.56-4.48-5.84C1.52,10.27,0.69,8.75,0.69,6.78z M7.47,0.35
					c-3.55,0-6.43,2.88-6.43,6.43c0,1.88,0.8,3.34,2.1,5.11c0.83,1.12,3.67,4.801,4.33,5.65l4.33-5.66c1.3-1.76,2.11-3.22,2.11-5.1
					C13.91,3.23,11.02,0.35,7.47,0.35z"/>
				<path fill="#626971" d="M7.47,20C3.85,20,0,19.26,0,17.9c0-1.11,2.53-1.75,4.9-1.99c0.1,0,0.18,0.06,0.19,0.16
					c0.01,0.1-0.06,0.18-0.15,0.189c-3.02,0.3-4.59,1.05-4.59,1.641c0,0.83,2.92,1.75,7.12,1.75c1.34,0,2.65-0.091,3.78-0.28
					c0.09-0.01,0.18,0.05,0.2,0.149c0.01,0.091-0.05,0.181-0.15,0.2C10.15,19.9,8.83,20,7.47,20z"/>
			</g>
			<g>
			</g>
		</g>
	</g>
</g>
</svg>
