<?xml version="1.0" encoding="utf-8"?>
<!-- Generator: Adobe Illustrator 15.0.0, SVG Export Plug-In . SVG Version: 6.00 Build 0)  -->
<!DOCTYPE svg PUBLIC "-//W3C//DTD SVG 1.1//EN" "http://www.w3.org/Graphics/SVG/1.1/DTD/svg11.dtd">
<svg version="1.1" id="Layer_1" xmlns="http://www.w3.org/2000/svg" xmlns:xlink="http://www.w3.org/1999/xlink" x="0px" y="0px"
	 width="16px" height="19.62px" viewBox="0 0 16 19.62" enable-background="new 0 0 16 19.62" xml:space="preserve">

<path fill="none" stroke="#787878" stroke-width="0.5" stroke-miterlimit="10" d="M12.09,13.562c2.053,0.539,3.41,1.474,3.41,2.535
	c0,1.67-3.357,3.023-7.5,3.023s-7.5-1.354-7.5-3.023c0-1.2,1.735-2.237,4.25-2.726"/>
<g>
	<g>
		<path fill="#054365" d="M8.138,1c3.637,0,6.595,2.543,6.595,5.669c0,1.112-0.383,2.195-1.105,3.131l-1.243,1.611h0.013
			l-4.259,5.568l-4.26-5.568h0.017L2.646,9.799c-0.722-0.933-1.104-2.015-1.104-3.13C1.542,3.543,4.501,1,8.138,1 M8.138,0
			C3.943,0,0.542,2.985,0.542,6.669c0,1.388,0.487,2.674,1.313,3.742H1.853l6.285,8.213l6.282-8.213h-0.002
			c0.825-1.068,1.314-2.354,1.314-3.742C15.732,2.985,12.336,0,8.138,0L8.138,0z"/>
	</g>
</g>
</svg>
