<?xml version="1.0" encoding="utf-8"?>
<!-- Generator: Adobe Illustrator 15.0.0, SVG Export Plug-In . SVG Version: 6.00 Build 0)  -->
<!DOCTYPE svg PUBLIC "-//W3C//DTD SVG 1.1//EN" "http://www.w3.org/Graphics/SVG/1.1/DTD/svg11.dtd">
<svg version="1.1" id="message" xmlns="http://www.w3.org/2000/svg" xmlns:xlink="http://www.w3.org/1999/xlink" x="0px" y="0px"
	 width="54.225px" height="54px" viewBox="0 0 54.225 54" enable-background="new 0 0 54.225 54" xml:space="preserve">
<path fill="#626971" d="M24.01,28.733c-0.065,0-0.132-0.014-0.194-0.043c-0.161-0.075-0.265-0.236-0.265-0.416V23.96h-1.756
	c-0.78,0-1.415-0.635-1.415-1.416V7.156c0-0.78,0.635-1.415,1.415-1.415H46.93c0.781,0,1.415,0.635,1.415,1.415v15.388
	c0,0.78-0.634,1.416-1.415,1.416H29.865l-5.56,4.665C24.22,28.697,24.116,28.733,24.01,28.733z M21.795,6.659
	c-0.275,0-0.498,0.223-0.498,0.498v15.388c0,0.275,0.223,0.499,0.498,0.499h2.214c0.253,0,0.458,0.205,0.458,0.458v3.79l4.934-4.141
	c0.083-0.07,0.187-0.107,0.295-0.107H46.93c0.275,0,0.498-0.224,0.498-0.499V7.156c0-0.274-0.223-0.498-0.498-0.498H21.795z"/>
<path fill="#308DCC" d="M47.887,17.824h4.969c0.502,0,0.91-0.406,0.91-0.909V1.369c0-0.504-0.408-0.91-0.91-0.91H28.019
	c-0.501,0-0.91,0.406-0.91,0.91V6.2H46.93c0.528,0,0.957,0.428,0.957,0.956V17.824z"/>
<path fill="#626971" d="M52.856,18.283h-4.969c-0.253,0-0.459-0.205-0.459-0.458V7.156c0-0.274-0.223-0.498-0.498-0.498H27.109
	c-0.253,0-0.458-0.205-0.458-0.458V1.369C26.65,0.614,27.265,0,28.019,0h24.837c0.755,0,1.369,0.614,1.369,1.369v15.547
	C54.225,17.669,53.611,18.283,52.856,18.283z M48.345,17.366h4.511c0.248,0,0.452-0.202,0.452-0.45V1.369
	c0-0.249-0.204-0.452-0.452-0.452H28.019c-0.249,0-0.452,0.203-0.452,0.452v4.373H46.93c0.781,0,1.415,0.635,1.415,1.415V17.366z"/>
<path fill="#626971" d="M41.611,12.932H26.854c-0.253,0-0.458-0.205-0.458-0.458s0.205-0.458,0.458-0.458h14.757
	c0.254,0,0.459,0.205,0.459,0.458S41.865,12.932,41.611,12.932z"/>
<path fill="#626971" d="M41.611,17.972H26.854c-0.253,0-0.458-0.205-0.458-0.458s0.205-0.458,0.458-0.458h14.757
	c0.254,0,0.459,0.205,0.459,0.458S41.865,17.972,41.611,17.972z"/>
<path fill="#626971" d="M13.082,38.115c-4.21,0-7.635-3.426-7.635-7.636s3.425-7.635,7.635-7.635s7.635,3.425,7.635,7.635
	S17.292,38.115,13.082,38.115z M13.082,23.761c-3.705,0-6.718,3.014-6.718,6.718c0,3.704,3.014,6.719,6.718,6.719
	c3.704,0,6.718-3.015,6.718-6.719C19.8,26.774,16.786,23.761,13.082,23.761z"/>
<path fill="#626971" d="M25.705,54H0.458C0.205,54,0,53.794,0,53.542v-8.022c0-3.325,2.705-6.03,6.029-6.03h14.105
	c3.325,0,6.029,2.705,6.029,6.03v8.022C26.164,53.794,25.958,54,25.705,54z M0.917,53.083h24.33v-7.563
	c0-2.819-2.293-5.112-5.112-5.112H6.029c-2.819,0-5.112,2.293-5.112,5.112V53.083z"/>
<path fill="#626971" d="M20.468,54c-0.253,0-0.458-0.205-0.458-0.458v-5.296c0-0.253,0.205-0.458,0.458-0.458
	s0.458,0.205,0.458,0.458v5.296C20.926,53.794,20.721,54,20.468,54z"/>
<path fill="#626971" d="M5.696,54c-0.253,0-0.458-0.205-0.458-0.458v-5.296c0-0.253,0.205-0.458,0.458-0.458
	s0.458,0.205,0.458,0.458v5.296C6.155,53.794,5.95,54,5.696,54z"/>
</svg>
