<?xml version="1.0" encoding="utf-8"?>
<!-- Generator: Adobe Illustrator 15.0.0, SVG Export Plug-In . SVG Version: 6.00 Build 0)  -->
<!DOCTYPE svg PUBLIC "-//W3C//DTD SVG 1.1//EN" "http://www.w3.org/Graphics/SVG/1.1/DTD/svg11.dtd">
<svg version="1.1" id="Layer_1" xmlns="http://www.w3.org/2000/svg" xmlns:xlink="http://www.w3.org/1999/xlink" x="0px" y="0px"
	 width="17px" height="26px" viewBox="-0.106 -5.583 17 26" enable-background="new -0.106 -5.583 17 26" xml:space="preserve">
<ellipse fill="#FFFFFF" cx="8.878" cy="6.869" rx="4.841" ry="4.864"/>
<path fill="none" stroke="#787878" stroke-width="0.5" stroke-miterlimit="10" d="M12.623,14.186
	c2.147,0.563,3.567,1.543,3.567,2.651c0,1.747-3.513,3.162-7.845,3.162C4.011,20,0.5,18.583,0.5,16.837
	c0-1.255,1.814-2.34,4.446-2.852"/>
<g>
	<path fill="#074265" d="M2.974,11.414h0.008l-0.651-0.843C1.504,9.502,1.067,8.259,1.067,6.976c0-3.559,3.33-6.453,7.422-6.453
		c4.092,0,7.421,2.896,7.421,6.453c0,1.28-0.438,2.523-1.265,3.595l-6.156,8.051L2.974,11.414z"/>
	<g>
		<path fill="#054365" d="M8.489,1.046c3.806,0,6.898,2.66,6.898,5.93c0,1.163-0.4,2.296-1.156,3.275l-1.3,1.686h0.015L8.49,17.76
			l-4.456-5.823h0.018L2.745,10.25C1.989,9.274,1.59,8.143,1.59,6.976C1.59,3.706,4.685,1.046,8.489,1.046 M8.489,0
			C4.102,0,0.544,3.123,0.544,6.976c0,1.452,0.509,2.796,1.374,3.915H1.915l6.574,8.591l6.571-8.591h-0.002
			c0.862-1.119,1.375-2.463,1.375-3.915C16.434,3.123,12.881,0,8.489,0L8.489,0z"/>
	</g>
</g>
<rect x="-0.106" y="-5.583" fill="none" width="17" height="26"/>
</svg>
