<?xml version="1.0" encoding="utf-8"?>
<!-- Generator: Adobe Illustrator 15.0.0, SVG Export Plug-In . SVG Version: 6.00 Build 0)  -->
<!DOCTYPE svg PUBLIC "-//W3C//DTD SVG 1.1//EN" "http://www.w3.org/Graphics/SVG/1.1/DTD/svg11.dtd">
<svg version="1.1" id="Layer_1" xmlns="http://www.w3.org/2000/svg" xmlns:xlink="http://www.w3.org/1999/xlink" x="0px" y="0px"
	 width="30px" height="30px" viewBox="0 0 30 30" enable-background="new 0 0 30 30" xml:space="preserve">
<g>
	<polygon fill="#FFFFFF" points="16.913,14.51 21.533,19.707 26.154,14.51 	"/>
	<path fill="#FFFFFF" d="M14.663,23.406c-4.692,0-8.509-3.771-8.509-8.407s3.817-8.406,8.509-8.406c4.692,0,8.509,3.771,8.509,8.406
		c0,0.267-0.013,0.536-0.039,0.802l-2.807-0.27c0.016-0.176,0.023-0.355,0.023-0.533c0-3.082-2.551-5.589-5.688-5.589
		c-3.136,0-5.688,2.507-5.688,5.589s2.552,5.588,5.688,5.588L14.663,23.406L14.663,23.406z"/>
</g>
</svg>
